<svg xmlns="http://www.w3.org/2000/svg" enable-background="new 0 0 512 512" viewBox="0 0 512 512" id="source-to-destination"><path fill="#19bf70" d="M284.09,386.23H71.92v-25h212.17c31.92,0,57.89-20.8,57.89-46.37s-25.97-46.37-57.89-46.37h-56.78c-45.71,0-82.89-32.02-82.89-71.37s37.18-71.37,82.89-71.37h214.77v25H227.31c-31.92,0-57.89,20.8-57.89,46.37s25.97,46.37,57.89,46.37h56.78c45.71,0,82.89,32.02,82.89,71.37S329.8,386.23,284.09,386.23z"></path><circle cx="468.58" cy="137.41" r="43.5" fill="#d84200"></circle><circle cx="44.1" cy="374.23" r="43.5" fill="#d84200"></circle><circle cx="44.1" cy="374.23" r="30.76" fill="#e84d00"></circle><circle cx="469.1" cy="137.23" r="30.76" fill="#e84d00"></circle></svg>